<svg id="Icons" height="512" viewBox="0 0 60 60" width="512" xmlns="http://www.w3.org/2000/svg"><path d="m51 5v45h-34v5a4 4 0 0 1 -3.99 4h-.01c-.13 0-.26-.01-.39-.02a3.99 3.99 0 0 1 -3.61-3.98v-50a4 4 0 0 0 -3.99-4h41.99a4 4 0 0 1 4 4z" fill="#f5f5f5"/><path d="m14 55a3.988 3.988 0 0 1 -2.487 3.7 3.918 3.918 0 0 0 1.1.282c.13.01.26.02.39.02h.01a4 4 0 0 0 3.987-4.002v-5h-3z" fill="#cfd8dc"/><path d="m47 1h-3a4 4 0 0 1 4 4v45h3v-45a4 4 0 0 0 -4-4z" fill="#cfd8dc"/><path d="m9 5v5h-7a1 1 0 0 1 -1-1v-3.83a4.116 4.116 0 0 1 3.61-4.15c.13-.01.26-.02.39-.02h.01a4 4 0 0 1 3.99 4z" fill="#f5f5f5"/><path d="m27 21c0 .366.015.731.046 1.09a15.983 15.983 0 0 0 9.882 13.71 15.966 15.966 0 0 0 18.582-4.827 15.79 15.79 0 0 0 3.444-8.883c.031-.359.046-.724.046-1.09a16 16 0 0 0 -32 0z" fill="#f5f5f5"/><path d="m56.509 12.436a15.988 15.988 0 0 0 -13.509-7.436c-.506 0-1.006.025-1.5.071a15.651 15.651 0 0 1 4.359 1.041 16.023 16.023 0 0 1 10.141 14.888c0 .366-.015.731-.046 1.089a15.79 15.79 0 0 1 -3.444 8.884 15.853 15.853 0 0 1 -11.027 5.952c.5.047 1.005.075 1.517.075a15.924 15.924 0 0 0 12.51-6.027 15.79 15.79 0 0 0 3.444-8.884c.031-.358.046-.723.046-1.089a15.879 15.879 0 0 0 -2.491-8.564z" fill="#cfd8dc"/><path d="m59 50v5a4 4 0 0 1 -4 4h-41.99a4 4 0 0 0 3.99-4v-5z" fill="#f5f5f5"/><path d="m56 50v5a4 4 0 0 1 -4 4h3a4 4 0 0 0 4-4v-5z" fill="#cfd8dc"/><g fill="#607d8b"><path d="m43 15.645 6.095 4.555-2.328 6.8h-7.534l-2.328-6.8z"/><path d="m48.86 6.11-5.86 4.22-5.86-4.22a16.023 16.023 0 0 1 11.72 0z"/><path d="m59 21c0 .37-.02.73-.05 1.09l-4.52-3.38 2.08-6.27a15.834 15.834 0 0 1 2.49 8.56z"/><path d="m55.51 30.97a16.162 16.162 0 0 1 -6.25 4.77l1.57-4.77.03-.07z"/><path d="m36.93 35.8a15.823 15.823 0 0 1 -6.44-4.83l4.81-.07.01.03z"/><path d="m31.57 18.71-4.52 3.38c-.03-.36-.05-.72-.05-1.09a15.834 15.834 0 0 1 2.49-8.56z"/></g><path d="m14 16h2a1 1 0 0 0 0-2h-2a1 1 0 0 0 0 2z"/><path d="m20 14a1 1 0 0 0 0 2h1a1 1 0 0 0 0-2z"/><path d="m14 11h10a1 1 0 0 0 0-2h-10a1 1 0 0 0 0 2z"/><path d="m14 21h7a1 1 0 0 0 0-2h-7a1 1 0 0 0 0 2z"/><path d="m22 45h-2a1 1 0 0 0 0 2h2a1 1 0 0 0 0-2z"/><path d="m16 45h-2a1 1 0 0 0 0 2h2a1 1 0 0 0 0-2z"/><path d="m26 47h2a1 1 0 0 0 0-2h-2a1 1 0 0 0 0 2z"/><path d="m32 47h2a1 1 0 0 0 0-2h-2a1 1 0 0 0 0 2z"/><path d="m38 47h2a1 1 0 0 0 0-2h-2a1 1 0 0 0 0 2z"/><path d="m44 47h2a1 1 0 0 0 0-2h-2a1 1 0 0 0 0 2z"/><path d="m60 21a16.965 16.965 0 0 0 -8-14.407v-1.593a5.006 5.006 0 0 0 -5-5h-42a5.107 5.107 0 0 0 -5 5.172v3.828a2 2 0 0 0 2 2h6v44a4.971 4.971 0 0 0 4.531 4.977c.152.012.314.022.466.022h42.003a5.006 5.006 0 0 0 5-5v-4.999a1 1 0 0 0 -1-1h-7v-13.585a16.941 16.941 0 0 0 8-14.415zm-4.988 8.966-3.98-.059-3.14-3.107 1.966-5.742 4.37-1.248 3.674 2.74a14.732 14.732 0 0 1 -2.89 7.416zm-20.047-.057-3.977.057a14.754 14.754 0 0 1 -2.89-7.414l3.674-2.74 4.37 1.248 1.966 5.74zm.244 3.885a14.918 14.918 0 0 1 -2.45-1.853l1.827-.026zm-7.177-13.687a14.884 14.884 0 0 1 1.243-5.145l1.12 3.382zm11.309-13.642a14.629 14.629 0 0 1 7.318 0l-3.659 2.635zm8.572 14.1-1.861 5.435h-6.1l-1.861-5.435 4.909-3.671zm-5.913-9.719v4.3l-5.335 3.984-4.311-1.23-1.757-5.3a15 15 0 0 1 6.422-5.336zm-2.26 17.154h6.52l3.393 3.355-1.2 3.608a15.1 15.1 0 0 1 -10.735.062l-1.255-3.789zm16.985-13.038a14.873 14.873 0 0 1 1.243 5.145l-2.363-1.763zm-1.325-2.369-1.754 5.307-4.311 1.23-5.335-3.986v-4.3l4.981-3.589a14.994 14.994 0 0 1 6.419 5.338zm-47.4-3.593h-6v-3.828a3.092 3.092 0 0 1 3-3.172 3 3 0 0 1 3 3zm8 41v5a3 3 0 0 1 -3 3c-.1 0-.212-.009-.3-.016a2.977 2.977 0 0 1 -2.7-2.984v-50a5 5 0 0 0 -1.013-3h38.013a3 3 0 0 1 3 3v.522a16.995 16.995 0 1 0 -7 32.478 16.775 16.775 0 0 0 7-1.509v12.509h-33a1 1 0 0 0 -1 1zm42 1v4a3 3 0 0 1 -3 3h-38a4.98 4.98 0 0 0 1-3v-4zm-7.006-17.333.58-1.751 1.663.024a15.156 15.156 0 0 1 -2.243 1.727z"/></svg>