<svg id="Layer_3" enable-background="new 0 0 64 64" height="512" viewBox="0 0 64 64" width="512" xmlns="http://www.w3.org/2000/svg"><g><g><path d="m35.076 53.303c1.931 1.098 4.138 1.697 6.419 1.697 6.028 0 11.75-2.654 15.644-7.256 3.139-3.709 4.861-8.41 4.861-13.269 0-4.215-1.296-8.327-3.713-11.78l-2.161-3.088c-5.093-7.274-13.415-11.607-22.295-11.607-2.507 0-4.966.681-7.116 1.971-2.776 1.666-4.834 4.22-5.898 7.177" fill="#672a0d"/><path d="m58.287 22.695-2.161-3.087c-5.093-7.275-13.415-11.608-22.295-11.608-2.507 0-4.966.681-7.116 1.971-2.74 1.644-4.777 4.157-5.853 7.065 6.088.187 11.915 2.556 16.381 6.724l.024.023c4.896 4.569 7.49 11.089 7.072 17.773-.219 3.508-1.712 6.815-4.197 9.301-1.188 1.188-2.533 2.181-3.981 2.975 1.659.747 3.467 1.168 5.334 1.168 6.028 0 11.75-2.654 15.644-7.256 3.139-3.709 4.861-8.41 4.861-13.269 0-4.214-1.296-8.327-3.713-11.78z" fill="#893b1b"/><path d="m18.092 17c6.367 0 12.497 2.416 17.152 6.761l.024.023c4.896 4.569 7.49 11.089 7.072 17.773-.219 3.508-1.712 6.815-4.197 9.301-3.293 3.292-7.759 5.142-12.417 5.142-2.457 0-4.887-.516-7.132-1.513l-5.594-2.487" fill="#893b1b"/><path d="m35.268 23.783-.024-.023c-4.655-4.344-10.785-6.76-17.152-6.76l-4.818 33.121 5.321 2.365c2.245.998 4.675 1.514 7.131 1.514 4.657 0 9.124-1.85 12.417-5.143 2.485-2.485 3.978-5.793 4.197-9.301.01-.164.01-.327.017-.491-.282-5.789-2.804-11.283-7.089-15.282z" fill="#a44b2f"/><path d="m2 36.774v3.38c0 2.496.81 4.925 2.307 6.921 2.325 3.101 5.973 4.925 9.848 4.925 2.504 0 4.948-.764 7.007-2.189 6.161-4.266 9.838-11.283 9.838-18.777v-1.126c0-2.548-.754-5.04-2.168-7.16-2.394-3.591-6.424-5.748-10.74-5.748-3.88 0-7.58 1.637-10.189 4.507-3.799 4.178-5.903 9.621-5.903 15.267z" fill="#f9cb66"/><path d="m18.092 17c-3.19 0-6.247 1.121-8.688 3.11-3.472 4.094-5.404 9.28-5.404 14.664v3.38c0 2.496.81 4.925 2.307 6.921 2.325 3.101 5.973 4.925 9.848 4.925 2.504 0 4.948-.764 7.007-2.189.748-.518 1.457-1.078 2.13-1.672 3.637-4.126 5.708-9.481 5.708-15.105v-1.125c0-2.548-.754-5.04-2.168-7.16-2.394-3.592-6.424-5.749-10.74-5.749z" fill="#ffd992"/><path d="m50.052 28.316c-1.813-5.44-5.907-9.781-11.231-11.911l-1.191-.477.742-1.857 1.191.477c5.872 2.349 10.387 7.137 12.386 13.136z" fill="#672a0d"/><path d="m54.293 40.707c-5.376-5.376-9.948-11.486-13.589-18.16l-.582-1.068 1.756-.957.582 1.068c3.55 6.506 8.007 12.462 13.247 17.704z" fill="#672a0d"/><path d="m30.118 32c-.886 0-1.773.209-2.565.605-.516.259-1.094.395-1.671.395-1.846 0-3.7-.184-5.512-.546-.982-.196-1.98-.323-2.981-.392l2.539-4.062h2.269c1.377 0 2.71-.404 3.857-1.168.818-.544 1.768-.832 2.749-.832h1.586c-.219-.688-.498-1.356-.83-2h-.756c-1.377 0-2.71.404-3.857 1.168-.818.544-1.768.832-2.749.832h-1.019l4.207-6.732c-.552-.378-1.137-.7-1.74-.988l-4.09 6.544c-.773-2.555-1.271-5.176-1.461-7.789v-.035c-.001 0-.002 0-.003 0-.671 0-1.333.066-1.988.162.247 3.37.951 6.684 2.073 9.87l-2.826 4.522c-.874-1.439-1.35-3.097-1.35-4.797 0-2.655-.778-5.228-2.252-7.439l-.352-.573c-.59.328-1.15.707-1.688 1.12l.376.562c1.253 1.882 1.916 4.071 1.916 6.33 0 2.398.777 4.73 2.19 6.653l-1.127 1.803-1.315-.219c-1.14-.19-2.058-1.079-2.283-2.211-.372-1.864-1.812-3.333-3.668-3.744l-2.248-.499c-.243.623-.455 1.258-.642 1.901.026.008.052.017.079.023l2.38.527c1.082.239 1.921 1.096 2.139 2.183.388 1.942 1.96 3.466 3.914 3.792l.497.083-.594.951h-1.409c-1.449 0-2.854.425-4.06 1.229-.775.517-1.677.822-2.607.882l-1.199.08h-.046c.002.672.067 1.338.184 1.993l1.189-.077c1.28-.083 2.521-.502 3.588-1.214.878-.584 1.897-.893 2.951-.893h.159l-4.993 7.989c.463.506.965.965 1.499 1.383l.066-.116 3.872-6.195c.315.966.484 1.968.484 2.989 0 2.054.553 4.067 1.583 5.842.519.067 1.042.108 1.572.108.255 0 .509-.013.762-.029l-.263-.491-.28-.468c-.898-1.498-1.374-3.214-1.374-4.962 0-1.487-.28-2.943-.833-4.326l-.319-.797 2.627-4.203c.964 1.05 1.525 2.434 1.525 3.88v.702c0 2.047 1.229 3.86 3.129 4.621 1.137.456 1.871 1.541 1.871 2.765v1.222c.053-.036.109-.067.161-.103.635-.439 1.236-.915 1.817-1.41-.111-1.925-1.298-3.606-3.107-4.329-1.137-.455-1.871-1.54-1.871-2.764v-.702c0-2.135-.896-4.179-2.432-5.63l.598-.957c1.279.023 2.559.146 3.811.396 1.941.388 3.927.585 5.905.585.886 0 1.773-.209 2.565-.605.516-.259 1.094-.395 1.671-.395h.684c.087-.661.14-1.328.169-2z" fill="#a44b2f"/><path d="m33.895 41.553-1.789.895c1.375 2.75 3.175 5.248 5.35 7.422l.848.813c.462-.478.886-.986 1.274-1.518l-.708-.708c-2.023-2.024-3.697-4.346-4.975-6.904z" fill="#893b1b"/><path d="m34.979 34.021-1.465-.879-1.029 1.715 1.465.879c2.051 1.23 3.499 3.186 4.08 5.506l1.939-.485c-.709-2.839-2.482-5.231-4.99-6.736z" fill="#893b1b"/><g fill="#672a0d"><path d="m45.105 40.447c2.01 4.019 3.459 8.294 4.296 12.642l.037.302c.64-.269 1.267-.569 1.877-.903-.889-4.49-2.373-8.841-4.421-12.936z"/><path d="m31.857 10.485-1.715 1.029c1.828 3.047 3.156 6.344 3.988 9.797.872.586 1.706 1.232 2.504 1.93l-.393-1.766c-.863-3.884-2.338-7.581-4.384-10.99z"/></g></g><g><path d="m59.106 22.122-2.162-3.087c-5.274-7.536-13.914-12.035-23.113-12.035-2.688 0-5.327.731-7.631 2.114-2.7 1.62-4.811 4.081-6.029 6.974-.689-.054-1.382-.088-2.079-.088-4.153 0-8.137 1.762-10.93 4.834-3.974 4.372-6.162 10.033-6.162 15.94v3.38c0 2.695.891 5.366 2.508 7.521 2.185 2.915 5.503 4.802 9.089 5.231l-.003.007 5.595 2.486c2.388 1.062 4.924 1.6 7.538 1.6 3.351 0 6.556-.901 9.371-2.556 1.975 1.016 4.173 1.557 6.397 1.557 6.336 0 12.316-2.774 16.408-7.61 3.286-3.884 5.097-8.826 5.097-13.915 0-4.441-1.347-8.713-3.894-12.353zm-55.222 8.541 1.483.328c1.082.239 1.921 1.096 2.139 2.183.388 1.942 1.96 3.466 3.914 3.792l.497.083-.596.951h-1.408c-1.449 0-2.854.425-4.06 1.229-.775.517-1.677.822-2.607.882l-.246.016v-3.352c0-2.091.306-4.145.884-6.112zm19.23-11.532-3.558 5.693c-.672-2.223-1.118-4.505-1.352-6.818 1.728.017 3.392.418 4.91 1.125zm-4.938 7.901-2.826 4.522c-.874-1.439-1.35-3.098-1.35-4.797 0-2.544-.722-5.009-2.078-7.156 1.327-.732 2.779-1.218 4.288-1.444.301 3.027.955 6.004 1.966 8.875zm-7.661 16.029c.316.966.485 1.968.485 2.989 0 1.634.352 3.24 1.012 4.724-1.793-.35-3.479-1.124-4.906-2.259zm3.849 7.931c-.891-1.494-1.364-3.202-1.364-4.942 0-1.487-.28-2.943-.833-4.326l-.319-.797 2.627-4.203c.964 1.05 1.525 2.434 1.525 3.88v.702c0 2.047 1.229 3.86 3.129 4.621 1.135.454 1.869 1.537 1.871 2.759-.137.099-.268.205-.408.301-1.843 1.278-3.992 1.964-6.228 2.005zm8.422-3.745c-.428-1.424-1.479-2.601-2.915-3.175-1.137-.455-1.871-1.54-1.871-2.764v-.702c0-2.135-.896-4.179-2.431-5.63l.598-.957c1.279.023 2.559.146 3.811.396 1.94.388 3.926.585 5.904.585.886 0 1.773-.209 2.565-.605.415-.208.874-.313 1.337-.356-.706 5.085-3.182 9.767-6.998 13.208zm4.767-14.642c-.516.259-1.094.395-1.671.395-1.846 0-3.7-.184-5.512-.546-.982-.196-1.98-.323-2.981-.392l2.539-4.062h2.269c1.377 0 2.71-.404 3.857-1.168.818-.544 1.768-.832 2.749-.832h.531c.434 1.249.666 2.565.666 3.908v1.125c0 .326-.015.651-.03.975-.836.023-1.669.224-2.417.597zm-2.608-7.437c-.817.544-1.767.832-2.748.832h-1.019l3.68-5.888c1.221.844 2.293 1.916 3.142 3.19.158.237.305.478.445.724-1.248.064-2.453.445-3.5 1.142zm-16.302-2.988c.494-.544 1.041-1.027 1.613-1.472 1.137 1.817 1.744 3.9 1.744 6.049 0 2.398.777 4.729 2.19 6.652l-1.127 1.803-1.314-.219c-1.14-.19-2.058-1.079-2.283-2.211-.372-1.864-1.812-3.333-3.668-3.744l-1.257-.278c.954-2.399 2.33-4.631 4.102-6.58zm-5.448 19.939.18-.012c1.28-.083 2.521-.502 3.588-1.214.877-.584 1.896-.893 2.95-.893h.158l-4.437 7.099c-.179-.205-.363-.404-.528-.623-.962-1.283-1.611-2.786-1.911-4.357zm15.806 11.453-1.991-.885c1.681-.368 3.281-1.058 4.72-2.054 6.431-4.451 10.27-11.778 10.27-19.599v-1.125c0-2.755-.808-5.423-2.336-7.715-.504-.756-1.091-1.433-1.718-2.065 2.408 1.08 4.658 2.537 6.639 4.386 4.695 4.382 7.157 10.571 6.757 16.98-.158 2.522-1.027 4.925-2.477 6.957-2.021-2.021-3.693-4.342-4.971-6.898l-1.789.895c1.375 2.75 3.175 5.248 5.35 7.422l.124.124c-.049.051-.093.106-.143.156-3.128 3.126-7.287 4.849-11.709 4.849-2.332 0-4.595-.48-6.726-1.428zm37.375-6.474c-1.506 1.78-3.298 3.246-5.275 4.367-.905-4.128-2.314-8.13-4.206-11.912l-1.789.895c1.893 3.786 3.269 7.804 4.132 11.946-2.415 1.044-5.042 1.606-7.743 1.606-1.529 0-3.044-.299-4.458-.865.629-.486 1.242-1 1.813-1.571 2.659-2.66 4.253-6.191 4.487-9.945.414-6.613-1.964-13.009-6.566-17.754l-.531-2.39c-.863-3.884-2.338-7.581-4.384-10.99l-1.715 1.029c1.871 3.118 3.225 6.496 4.051 10.038-3.493-2.737-7.595-4.521-11.951-5.217 1.082-2.275 2.816-4.204 4.987-5.507 1.995-1.196 4.278-1.828 6.603-1.828 8.547 0 16.574 4.18 21.475 11.182l2.162 3.087c2.31 3.302 3.532 7.177 3.532 11.206 0 4.617-1.642 9.1-4.624 12.623z"/><path d="m50.052 28.316 1.896-.633c-1.999-5.999-6.514-10.787-12.386-13.136l-1.191-.477-.742 1.857 1.191.477c5.325 2.131 9.418 6.472 11.232 11.912z"/><path d="m41.878 20.521-1.756.957.582 1.068c3.641 6.674 8.213 12.784 13.589 18.16l1.414-1.414c-5.24-5.241-9.697-11.198-13.247-17.704z"/><path d="m38.03 41.243 1.939-.485c-.71-2.839-2.482-5.231-4.99-6.736l-1.465-.879-1.029 1.715 1.465.879c2.051 1.229 3.499 3.185 4.08 5.506z"/></g></g></svg>